<svg viewBox="0 0 512 512" fill="none" xmlns="http://www.w3.org/2000/svg">
    <g clip-path="url(#a)">
        <path
            d="M234.034 25.658c2.022-2.362 3.033-3.543 3.94-4.415 10.067-9.684 25.985-9.684 36.052 0 .907.872 1.918 2.053 3.94 4.415 1.474 1.723 2.211 2.584 2.921 3.294a26 26 0 0 0 29.382 5.18c.909-.424 1.897-.98 3.872-2.095 2.708-1.528 4.062-2.292 5.212-2.802 12.771-5.657 27.73-.212 33.877 12.33.554 1.13 1.1 2.586 2.192 5.497.797 2.123 1.195 3.185 1.619 4.094a26 26 0 0 0 25.838 14.918c1-.088 2.118-.273 4.355-.645 3.067-.51 4.601-.765 5.857-.85 13.935-.948 26.13 9.285 27.616 23.173.134 1.252.15 2.806.18 5.915.023 2.267.034 3.401.121 4.401a26 26 0 0 0 19.178 22.855c.97.26 2.084.468 4.313.883 3.057.571 4.585.856 5.794 1.205 13.419 3.875 21.379 17.662 18.025 31.221-.302 1.222-.819 2.688-1.853 5.62-.755 2.138-1.132 3.207-1.392 4.177a26.001 26.001 0 0 0 10.204 28.036c.822.575 1.799 1.152 3.751 2.305 2.677 1.581 4.016 2.371 5.033 3.113 11.284 8.232 14.049 23.909 6.26 35.504-.702 1.044-1.689 2.245-3.664 4.646-1.441 1.752-2.161 2.627-2.737 3.449a26.004 26.004 0 0 0 0 29.836c.576.822 1.296 1.697 2.737 3.449 1.975 2.401 2.962 3.602 3.664 4.646 7.789 11.595 5.024 27.272-6.26 35.504-1.017.742-2.356 1.532-5.033 3.113-1.952 1.153-2.929 1.73-3.751 2.305a26.001 26.001 0 0 0-10.204 28.036c.26.97.637 2.039 1.392 4.177 1.034 2.932 1.551 4.398 1.853 5.62 3.354 13.559-4.606 27.346-18.025 31.221-1.209.349-2.737.634-5.794 1.205-2.229.415-3.343.623-4.313.883a26 26 0 0 0-19.178 22.855c-.087 1-.098 2.133-.121 4.401-.03 3.109-.046 4.663-.18 5.915-1.486 13.888-13.681 24.121-27.616 23.173-1.256-.085-2.79-.34-5.857-.85-2.237-.371-3.355-.557-4.355-.645a26.001 26.001 0 0 0-25.838 14.918c-.424.909-.822 1.971-1.619 4.094-1.092 2.911-1.638 4.366-2.192 5.497-6.147 12.542-21.106 17.987-33.877 12.33-1.15-.51-2.504-1.274-5.212-2.802-1.975-1.114-2.963-1.671-3.872-2.096a26.001 26.001 0 0 0-29.382 5.181c-.71.71-1.447 1.571-2.921 3.294-2.022 2.362-3.033 3.543-3.94 4.415-10.067 9.684-25.985 9.684-36.052 0-.907-.872-1.918-2.053-3.94-4.415-1.474-1.723-2.211-2.584-2.921-3.294a26.001 26.001 0 0 0-29.382-5.181c-.909.425-1.897.982-3.872 2.096-2.708 1.528-4.062 2.292-5.212 2.802-12.771 5.657-27.73.212-33.877-12.33-.554-1.131-1.1-2.586-2.192-5.497-.797-2.123-1.195-3.185-1.619-4.094a26.001 26.001 0 0 0-25.838-14.918c-1 .088-2.118.274-4.355.645-3.067.51-4.601.765-5.857.85-13.935.948-26.13-9.285-27.616-23.173-.134-1.252-.15-2.806-.18-5.915-.023-2.268-.034-3.401-.121-4.401a26 26 0 0 0-19.178-22.855c-.97-.26-2.084-.468-4.313-.883-3.056-.571-4.585-.856-5.794-1.205-13.42-3.875-21.379-17.662-18.026-31.221.303-1.222.82-2.688 1.854-5.62.755-2.138 1.132-3.207 1.392-4.177a26 26 0 0 0-10.204-28.036c-.822-.575-1.799-1.152-3.751-2.305-2.677-1.581-4.016-2.371-5.033-3.113-11.284-8.232-14.049-23.909-6.26-35.504.702-1.044 1.69-2.245 3.664-4.646 1.44-1.752 2.16-2.627 2.737-3.449a26.002 26.002 0 0 0 0-29.836c-.576-.822-1.296-1.697-2.737-3.449-1.974-2.401-2.962-3.602-3.664-4.646-7.789-11.595-5.024-27.272 6.26-35.504 1.017-.742 2.356-1.532 5.033-3.113 1.952-1.153 2.928-1.73 3.75-2.305a26 26 0 0 0 10.205-28.036c-.26-.97-.637-2.039-1.392-4.177-1.034-2.932-1.551-4.398-1.853-5.62-3.354-13.559 4.606-27.346 18.025-31.221 1.21-.349 2.738-.634 5.794-1.205 2.229-.415 3.343-.623 4.313-.883a26 26 0 0 0 19.178-22.855c.087-1 .098-2.133.12-4.4.031-3.11.047-4.664.18-5.916 1.487-13.888 13.682-24.12 27.617-23.173 1.256.085 2.79.34 5.857.85 2.237.371 3.355.557 4.355.645a26 26 0 0 0 25.838-14.918c.424-.91.822-1.97 1.619-4.094 1.092-2.91 1.638-4.366 2.192-5.496 6.147-12.543 21.106-17.988 33.877-12.33 1.15.509 2.504 1.273 5.212 2.8 1.975 1.115 2.963 1.672 3.872 2.097a26 26 0 0 0 29.382-5.181c.71-.71 1.447-1.571 2.921-3.294Z"
            fill="#FF7800" />
        <path
            d="M236.963 57.89c4.762-5.562 7.142-8.342 9.708-9.861a18 18 0 0 1 18.338 0c2.566 1.519 4.946 4.3 9.708 9.861 3.469 4.053 5.204 6.08 7.16 7.42a17.999 17.999 0 0 0 14.662 2.585c2.296-.59 4.619-1.901 9.266-4.523 6.376-3.598 9.564-5.397 12.494-5.947a18 18 0 0 1 17.233 6.273c1.891 2.304 3.177 5.732 5.749 12.586 1.874 4.995 2.812 7.493 4.19 9.421a18.002 18.002 0 0 0 12.894 7.445c2.36.23 4.991-.208 10.254-1.082 7.223-1.2 10.834-1.8 13.775-1.314a17.999 17.999 0 0 1 14.048 11.787c.99 2.813 1.026 6.473 1.098 13.794.053 5.335.079 8.003.716 10.286a17.999 17.999 0 0 0 9.57 11.406c2.138 1.023 4.76 1.512 10.005 2.49 7.197 1.343 10.796 2.014 13.394 3.477a17.999 17.999 0 0 1 9.169 15.881c-.032 2.982-1.25 6.434-3.686 13.338-1.775 5.031-2.663 7.547-2.846 9.91a18.001 18.001 0 0 0 5.092 13.991c1.66 1.693 3.957 3.049 8.551 5.762 6.304 3.724 9.456 5.585 11.397 7.848a18 18 0 0 1 3.184 18.06c-1.05 2.79-3.375 5.618-8.025 11.272-3.389 4.121-5.084 6.182-6.064 8.34a17.996 17.996 0 0 0 0 14.888c.98 2.158 2.675 4.219 6.064 8.34 4.65 5.654 6.975 8.482 8.025 11.272a18 18 0 0 1-3.184 18.06c-1.941 2.263-5.093 4.124-11.397 7.848-4.594 2.713-6.891 4.069-8.551 5.762a18.001 18.001 0 0 0-5.092 13.991c.183 2.363 1.071 4.879 2.846 9.91 2.436 6.904 3.654 10.356 3.686 13.338a17.999 17.999 0 0 1-9.169 15.881c-2.598 1.463-6.197 2.134-13.394 3.477-5.245.978-7.867 1.467-10.005 2.49a17.999 17.999 0 0 0-9.57 11.406c-.637 2.283-.663 4.951-.716 10.286-.072 7.321-.108 10.981-1.098 13.794a17.997 17.997 0 0 1-14.048 11.787c-2.941.486-6.552-.114-13.775-1.314-5.263-.874-7.894-1.312-10.254-1.082a18.004 18.004 0 0 0-12.894 7.445c-1.378 1.928-2.316 4.426-4.19 9.421-2.572 6.854-3.858 10.282-5.749 12.586a18 18 0 0 1-17.233 6.273c-2.93-.55-6.118-2.349-12.494-5.947-4.647-2.622-6.97-3.933-9.266-4.523a17.999 17.999 0 0 0-14.662 2.585c-1.956 1.34-3.691 3.367-7.16 7.42-4.762 5.562-7.142 8.342-9.708 9.861a18 18 0 0 1-18.338 0c-2.566-1.519-4.946-4.299-9.708-9.861-3.469-4.053-5.204-6.08-7.16-7.42a17.999 17.999 0 0 0-14.662-2.585c-2.296.59-4.619 1.901-9.266 4.523-6.376 3.598-9.564 5.397-12.494 5.947a18 18 0 0 1-17.233-6.273c-1.891-2.304-3.177-5.732-5.749-12.586-1.874-4.995-2.812-7.493-4.19-9.421a18.004 18.004 0 0 0-12.894-7.445c-2.36-.23-4.991.208-10.254 1.082-7.223 1.2-10.834 1.8-13.775 1.314a17.997 17.997 0 0 1-14.048-11.787c-.99-2.813-1.026-6.473-1.098-13.794-.053-5.335-.079-8.003-.716-10.286a17.999 17.999 0 0 0-9.57-11.406c-2.138-1.023-4.76-1.512-10.005-2.49-7.197-1.343-10.796-2.014-13.394-3.477a18 18 0 0 1-9.17-15.881c.033-2.982 1.251-6.434 3.687-13.338 1.775-5.031 2.663-7.547 2.846-9.91a18 18 0 0 0-5.092-13.991c-1.66-1.693-3.957-3.049-8.55-5.762-6.305-3.724-9.457-5.585-11.398-7.848a18 18 0 0 1-3.184-18.06c1.05-2.79 3.375-5.618 8.026-11.272 3.389-4.121 5.083-6.182 6.063-8.34a18 18 0 0 0 0-14.888c-.98-2.158-2.675-4.219-6.063-8.34-4.65-5.654-6.976-8.482-8.026-11.272a18 18 0 0 1 3.184-18.06c1.941-2.263 5.093-4.124 11.397-7.848 4.594-2.713 6.891-4.069 8.55-5.762a18 18 0 0 0 5.093-13.991c-.183-2.363-1.07-4.879-2.846-9.91-2.436-6.904-3.654-10.356-3.686-13.338a18 18 0 0 1 9.169-15.881c2.598-1.463 6.197-2.134 13.394-3.477 5.245-.978 7.867-1.467 10.005-2.49a17.999 17.999 0 0 0 9.57-11.406c.637-2.283.663-4.951.716-10.286.072-7.321.108-10.981 1.098-13.794a17.999 17.999 0 0 1 14.048-11.787c2.941-.486 6.552.114 13.775 1.314 5.263.874 7.894 1.312 10.254 1.082a18.002 18.002 0 0 0 12.894-7.445c1.378-1.928 2.316-4.425 4.19-9.42 2.572-6.855 3.858-10.283 5.749-12.587a18 18 0 0 1 17.233-6.273c2.93.55 6.118 2.349 12.494 5.947 4.647 2.622 6.97 3.933 9.266 4.523a17.999 17.999 0 0 0 14.662-2.585c1.956-1.34 3.691-3.367 7.16-7.42Z"
            fill="#241F31" />
    </g>
    <defs>
        <clipPath id="a">
            <path fill="#fff" d="M0 0h512v512H0z" />
        </clipPath>
    </defs>
</svg>